<svg width="81" height="82" viewBox="0 0 81 82" fill="none" xmlns="http://www.w3.org/2000/svg">
<g clip-path="url(#clip0_422_2976)">
<path fill-rule="evenodd" clip-rule="evenodd" d="M70.1723 9.32373C68.244 9.32373 66.6963 10.8605 66.6963 12.7714V16.7143H73.6483V12.7714C73.6483 10.8605 72.1006 9.32373 70.1723 9.32373ZM62.6963 12.7714C62.6963 8.61557 66.0708 5.32373 70.1723 5.32373C74.2738 5.32373 77.6483 8.61557 77.6483 12.7714V18.7143C77.6483 19.8189 76.7529 20.7143 75.6483 20.7143H64.6963C63.5917 20.7143 62.6963 19.8189 62.6963 18.7143V12.7714Z" fill="#FF7A00"/>
<path fill-rule="evenodd" clip-rule="evenodd" d="M51.835 9.32373V5.32373H69.4935C70.5539 5.32373 71.43 6.1513 71.4903 7.20995C71.5506 8.26861 70.7742 9.19033 69.7207 9.31079C68.0126 9.50608 66.6943 10.9514 66.6943 12.7095V31.7763H62.6943V12.7095C62.6943 11.4893 62.9877 10.3385 63.5082 9.32373H51.835Z" fill="#FF7A00"/>
<path fill-rule="evenodd" clip-rule="evenodd" d="M15.7676 66.1494L15.7676 71.1792C15.7676 72.2838 14.8721 73.1792 13.7676 73.1792C12.663 73.1792 11.7676 72.2838 11.7676 71.1792L11.7676 66.1494L15.7676 66.1494Z" fill="#FF7A00"/>
<path fill-rule="evenodd" clip-rule="evenodd" d="M62.6961 68.7954H66.6961V74.6145C66.6961 78.4279 63.8305 81.5636 60.1241 81.9873C60.0487 81.9959 59.9728 82.0003 59.8969 82.0003H9.19775V78.0003H59.7699C61.4291 77.761 62.6961 76.3381 62.6961 74.6145V68.7954Z" fill="#FF7A00"/>
<path fill-rule="evenodd" clip-rule="evenodd" d="M1.96826 71.8291C1.96826 70.7245 2.86369 69.8291 3.96826 69.8291H54.6674C55.772 69.8291 56.6674 70.7245 56.6674 71.8291V74.5529C56.6674 76.311 57.9857 77.7563 59.6938 77.9516C60.7473 78.0721 61.5237 78.9938 61.4633 80.0525C61.403 81.1111 60.527 81.9387 59.4666 81.9387H8.76745C8.69154 81.9387 8.61569 81.9344 8.54027 81.9257C4.83388 81.502 1.96826 78.3663 1.96826 74.5529V71.8291ZM5.96826 73.8291V74.5529C5.96826 76.2765 7.23528 77.6995 8.89446 77.9387H53.4812C52.9608 76.9239 52.6674 75.7731 52.6674 74.5529V73.8291H5.96826Z" fill="#FF7A00"/>
<path fill-rule="evenodd" clip-rule="evenodd" d="M70.1723 9.32373C68.244 9.32373 66.6963 10.8605 66.6963 12.7714H62.6963C62.6963 8.61557 66.0708 5.32373 70.1723 5.32373C74.2738 5.32373 77.6483 8.61557 77.6483 12.7714V20.3857H73.6483V12.7714C73.6483 10.8605 72.1006 9.32373 70.1723 9.32373Z" fill="#FF7A00"/>
<path fill-rule="evenodd" clip-rule="evenodd" d="M52.6665 74.5525V70.1572H56.6665V74.5525C56.6665 75.3634 57.0341 76.2333 57.6795 76.9143C58.3283 77.599 59.1066 77.9383 59.7733 77.9383V81.9383C57.7944 81.9383 56.0192 80.9775 54.7761 79.6658C53.5294 78.3503 52.6665 76.5274 52.6665 74.5525Z" fill="#FF7A00"/>
<path fill-rule="evenodd" clip-rule="evenodd" d="M4 4V59.5528H43.931V4H4ZM47.931 60.3777V2.68096C47.931 1.2165 46.7395 0 45.2542 0H2.67681C1.19157 0 0 1.2165 0 2.68096V60.8719C0 62.3363 1.19157 63.5528 2.67681 63.5528H45.3158C46.801 63.5528 47.9926 62.3363 47.9926 60.8719C47.9926 60.7013 47.9712 60.5357 47.931 60.3777Z" fill="#FF7A00"/>
<path fill-rule="evenodd" clip-rule="evenodd" d="M4 52.8673V9.80029H0V54.1863C0 55.6508 1.19157 56.8673 2.67681 56.8673H45.3158C46.801 56.8673 47.9926 55.6508 47.9926 54.1863V9.80029H43.9926V52.8673H4Z" fill="#FF7A00"/>
<path fill-rule="evenodd" clip-rule="evenodd" d="M6.88965 10.9761C6.88965 9.8715 7.78508 8.97607 8.88965 8.97607H39.0999C40.2045 8.97607 41.0999 9.8715 41.0999 10.9761V18.6523C41.0999 19.7569 40.2045 20.6523 39.0999 20.6523H8.88965C7.78508 20.6523 6.88965 19.7569 6.88965 18.6523V10.9761ZM10.8896 12.9761V16.6523H37.0999V12.9761H10.8896Z" fill="#FF7A00"/>
<path fill-rule="evenodd" clip-rule="evenodd" d="M13.1381 28.4526H7.60059V24.4526H13.1381V28.4526Z" fill="#FF7A00"/>
<path fill-rule="evenodd" clip-rule="evenodd" d="M22.246 28.4526H16.7085V24.4526H22.246V28.4526Z" fill="#FF7A00"/>
<path fill-rule="evenodd" clip-rule="evenodd" d="M31.2875 28.4526H25.75V24.4526H31.2875V28.4526Z" fill="#FF7A00"/>
<path fill-rule="evenodd" clip-rule="evenodd" d="M40.3329 28.4526H34.7954V24.4526H40.3329V28.4526Z" fill="#FF7A00"/>
<path fill-rule="evenodd" clip-rule="evenodd" d="M13.1381 35.3242H7.60059V31.3242H13.1381V35.3242Z" fill="#FF7A00"/>
<path fill-rule="evenodd" clip-rule="evenodd" d="M22.246 35.3242H16.7085V31.3242H22.246V35.3242Z" fill="#FF7A00"/>
<path fill-rule="evenodd" clip-rule="evenodd" d="M31.2875 35.3242H25.75V31.3242H31.2875V35.3242Z" fill="#FF7A00"/>
<path fill-rule="evenodd" clip-rule="evenodd" d="M40.3329 35.3242H34.7954V31.3242H40.3329V35.3242Z" fill="#FF7A00"/>
<path fill-rule="evenodd" clip-rule="evenodd" d="M13.1381 42.1338H7.60059V38.1338H13.1381V42.1338Z" fill="#FF7A00"/>
<path fill-rule="evenodd" clip-rule="evenodd" d="M22.246 42.1338H16.7085V38.1338H22.246V42.1338Z" fill="#FF7A00"/>
<path fill-rule="evenodd" clip-rule="evenodd" d="M31.2875 42.1338H25.75V38.1338H31.2875V42.1338Z" fill="#FF7A00"/>
<path fill-rule="evenodd" clip-rule="evenodd" d="M40.3329 42.1338H34.7954V38.1338H40.3329V42.1338Z" fill="#FF7A00"/>
<path fill-rule="evenodd" clip-rule="evenodd" d="M13.1381 49.0049H7.60059V45.0049H13.1381V49.0049Z" fill="#FF7A00"/>
<path fill-rule="evenodd" clip-rule="evenodd" d="M22.246 49.0049H16.7085V45.0049H22.246V49.0049Z" fill="#FF7A00"/>
<path fill-rule="evenodd" clip-rule="evenodd" d="M31.2875 49.0049H25.75V45.0049H31.2875V49.0049Z" fill="#FF7A00"/>
<path fill-rule="evenodd" clip-rule="evenodd" d="M40.3329 49.0049H34.7954V45.0049H40.3329V49.0049Z" fill="#FF7A00"/>
<path fill-rule="evenodd" clip-rule="evenodd" d="M75.8628 50.8429C75.8628 44.5719 70.785 39.5428 64.6513 39.5951L64.6343 39.5952C58.4225 39.5952 53.4058 44.6372 53.4058 50.8429C53.4058 57.0486 58.4225 62.0906 64.6343 62.0906C70.8461 62.0906 75.8628 57.0486 75.8628 50.8429ZM64.6258 35.5952C73.0089 35.5284 79.8628 42.3834 79.8628 50.8429C79.8628 59.2469 73.0661 66.0906 64.6343 66.0906C56.2024 66.0906 49.4058 59.2469 49.4058 50.8429C49.4058 42.4418 56.1979 35.5998 64.6258 35.5952Z" fill="#FF7A00"/>
<path fill-rule="evenodd" clip-rule="evenodd" d="M65.315 42.0532C66.0745 42.3568 66.5725 43.0923 66.5725 43.9102V56.1675H62.5725V48.912L61.8372 49.6845L58.9399 46.9265L63.1238 42.5313C63.6878 41.9389 64.5556 41.7495 65.315 42.0532Z" fill="#FF7A00"/>
<path fill-rule="evenodd" clip-rule="evenodd" d="M67.4038 58.1055H61.6816V54.1055H67.4038V58.1055Z" fill="#FF7A00"/>
<path fill-rule="evenodd" clip-rule="evenodd" d="M73.6479 35.429V24.7812H77.6479V35.429H73.6479Z" fill="#FF7A00"/>
<path fill-rule="evenodd" clip-rule="evenodd" d="M70.3555 28.105H80.9998V32.105H70.3555V28.105Z" fill="#FF7A00"/>
</g>
<defs>
<clipPath id="clip0_422_2976">
<rect width="81" height="82" fill="white"/>
</clipPath>
</defs>
</svg>
