<svg width="71" height="86" viewBox="0 0 71 86" fill="none" xmlns="http://www.w3.org/2000/svg">
<path fill-rule="evenodd" clip-rule="evenodd" d="M57.346 72.8911L53.1895 63.2915L56.8602 61.7021L63.5207 77.0848L50.9225 76.6935L42.5139 85.8808L37.418 74.245L41.082 72.6403L43.7125 78.6467L49.2115 72.6385L57.346 72.8911Z" fill="#FF7A00"/>
<path fill-rule="evenodd" clip-rule="evenodd" d="M13.8662 73.1564L15.9972 67.8082L12.2813 66.3276L7.84473 77.4625L20.3389 76.8378L28.921 85.888L35.951 68.6606L32.2475 67.1493L27.5591 78.6386L21.976 72.751L13.8662 73.1564Z" fill="#FF7A00"/>
<path fill-rule="evenodd" clip-rule="evenodd" d="M30.9802 7.43768C30.0774 7.55625 29.2557 7.3139 28.6761 7.08893C28.1233 6.87433 27.5668 6.5814 27.1322 6.35264C27.0896 6.3302 27.0481 6.30838 27.008 6.28731C26.497 6.01926 26.1503 5.84798 25.8684 5.75444C25.8612 5.75204 25.8542 5.74975 25.8474 5.74757C25.8411 5.75601 25.8346 5.76493 25.8278 5.77435C25.6566 6.01314 25.4792 6.35375 25.2303 6.86824C25.2066 6.91709 25.1821 6.96803 25.1567 7.02075C24.948 7.45448 24.6816 8.00808 24.3766 8.49518C24.0407 9.0316 23.5063 9.74581 22.6649 10.1848L22.6341 10.2009L22.6027 10.2159C21.7612 10.6184 20.8782 10.624 20.2572 10.5796C19.6919 10.5392 19.0935 10.4323 18.6199 10.3477C18.56 10.337 18.5021 10.3266 18.4465 10.3168C17.8837 10.2175 17.4968 10.1605 17.1962 10.158C17.1832 10.1579 17.171 10.158 17.1593 10.1581C17.1571 10.1646 17.1549 10.1715 17.1527 10.1785C17.0631 10.462 16.9989 10.8455 16.9199 11.4148C16.9126 11.4676 16.9051 11.5226 16.8973 11.5794C16.8317 12.0593 16.7482 12.6706 16.6078 13.2285C16.455 13.8362 16.1667 14.6884 15.4919 15.3632L15.4728 15.3823L15.4532 15.4008C14.7709 16.0473 13.9279 16.329 13.3118 16.4811C12.7509 16.6197 12.139 16.7027 11.656 16.7682C11.5971 16.7762 11.54 16.7839 11.4853 16.7914C10.9124 16.8703 10.527 16.9346 10.2427 17.0243C10.2387 17.0256 10.2348 17.0268 10.231 17.0281C10.231 17.0342 10.2311 17.0405 10.2312 17.0469C10.2368 17.3486 10.2981 17.7342 10.4028 18.3037C10.4109 18.3478 10.4194 18.3934 10.4281 18.4402C10.5178 18.9245 10.6331 19.5469 10.672 20.1403C10.7132 20.77 10.6956 21.6599 10.265 22.5055C9.84119 23.3686 9.12096 23.9109 8.5921 24.2444C8.09708 24.5566 7.5311 24.827 7.09045 25.0376C7.04243 25.0605 6.9959 25.0827 6.95112 25.1042C6.43007 25.3543 6.08299 25.5325 5.83813 25.706C5.82977 25.7119 5.8218 25.7176 5.8142 25.7232C5.81686 25.7312 5.81967 25.7397 5.82266 25.7484C5.9184 26.0277 6.09321 26.3699 6.36859 26.8747C6.39192 26.9175 6.41619 26.9618 6.44123 27.0075C6.67517 27.4347 6.97589 27.9838 7.19685 28.5292C7.4379 29.1242 7.70109 29.982 7.55535 30.9293L7.55352 30.9412L7.55348 30.9412C7.40231 31.8861 6.87718 32.6181 6.47373 33.095C6.10412 33.5319 5.65777 33.9542 5.30774 34.2854C5.26548 34.3254 5.22461 34.364 5.18545 34.4012C4.77044 34.7955 4.49734 35.0703 4.31985 35.3079C4.31586 35.3133 4.31199 35.3185 4.30826 35.3236C4.31109 35.3274 4.314 35.3313 4.31698 35.3352C4.49262 35.568 4.76876 35.8429 5.18807 36.2296C5.24628 36.2833 5.30829 36.3401 5.37311 36.3994C5.7183 36.7153 6.14349 37.1044 6.50276 37.4964C6.92019 37.9519 7.45639 38.6247 7.69769 39.4865L7.73019 39.6025L7.74851 39.7216C7.89399 40.6673 7.63174 41.5278 7.39276 42.124C7.17025 42.6791 6.86731 43.2373 6.63114 43.6724C6.60845 43.7142 6.58637 43.7549 6.56504 43.7943C6.28819 44.3061 6.1115 44.6525 6.01451 44.9336C6.01399 44.9351 6.01346 44.9366 6.01294 44.9382C6.01902 44.9426 6.02534 44.9472 6.0319 44.9519C6.27069 45.1232 6.61129 45.3005 7.12579 45.5495C7.17462 45.5731 7.22555 45.5976 7.27825 45.623C7.71198 45.8317 8.26561 46.0982 8.75273 46.4032C9.28915 46.7391 10.0034 47.2734 10.4424 48.1148L10.4584 48.1457L10.4735 48.1771C10.8759 49.0185 10.8815 49.9015 10.8371 50.5225C10.7968 51.0879 10.6898 51.6862 10.6052 52.1599C10.5945 52.2198 10.5842 52.2777 10.5744 52.3333C10.475 52.8961 10.4181 53.2829 10.4156 53.5836C10.4155 53.5922 10.4155 53.6005 10.4155 53.6085C10.4302 53.6135 10.446 53.6185 10.4628 53.6238C10.7601 53.716 11.1542 53.7807 11.7267 53.8596C11.7787 53.8667 11.8326 53.874 11.8883 53.8816C12.3727 53.9474 12.9876 54.0309 13.5485 54.1717C14.1575 54.3245 15.0101 54.6128 15.6851 55.2878C16.3599 55.9626 16.6482 56.8148 16.801 57.4224C16.9414 57.9804 17.0249 58.5916 17.0905 59.0716C17.0983 59.1284 17.1058 59.1834 17.1131 59.2362C17.192 59.8054 17.2562 60.189 17.3459 60.4725C17.3472 60.4765 17.3484 60.4805 17.3497 60.4844C17.3559 60.4844 17.3623 60.4843 17.3689 60.4842C17.6706 60.4786 18.0562 60.4172 18.6257 60.3125C18.6697 60.3044 18.7153 60.296 18.7621 60.2873C19.2463 60.1976 19.8688 60.0823 20.4622 60.0434C21.0996 60.0017 22.0033 60.0202 22.8581 60.4662C23.6995 60.9052 24.2338 61.6194 24.5697 62.1558C24.8747 62.6429 25.1412 63.1965 25.3499 63.6303C25.3753 63.683 25.3998 63.7339 25.4234 63.7827C25.6724 64.2972 25.8498 64.6378 26.021 64.8766C26.0278 64.8861 26.0343 64.895 26.0405 64.9034C26.0473 64.9012 26.0544 64.8989 26.0616 64.8965C26.3434 64.803 26.6901 64.6317 27.2011 64.3637C27.2413 64.3426 27.2828 64.3208 27.3254 64.2983C27.76 64.0696 28.3165 63.7766 28.8693 63.5621C29.4586 63.3333 30.2983 63.0866 31.219 63.2196C32.1689 63.3433 32.9118 63.851 33.3939 64.2414C33.8493 64.6102 34.2883 65.0597 34.631 65.4105C34.6664 65.4467 34.7007 65.4819 34.7339 65.5158C35.1386 65.9288 35.4222 66.2044 35.6698 66.3859C35.6869 66.3985 35.7029 66.4098 35.7176 66.4199C35.7328 66.4096 35.7493 66.3981 35.7671 66.3853C36.0123 66.2086 36.2953 65.9383 36.6968 65.5327C36.7358 65.4933 36.7763 65.4522 36.8182 65.4097C37.1557 65.0673 37.5832 64.6335 38.0225 64.2745C38.5037 63.8811 39.2327 63.3747 40.1605 63.2263L40.1724 63.2244C41.1057 63.0808 41.9582 63.3306 42.5544 63.5621C43.1071 63.7766 43.6636 64.0695 44.0982 64.2983C44.1408 64.3208 44.1823 64.3426 44.2225 64.3637C44.7335 64.6317 45.0802 64.803 45.362 64.8965C45.3693 64.8989 45.3763 64.9012 45.3831 64.9034C45.3894 64.895 45.3959 64.8861 45.4026 64.8766C45.5739 64.6378 45.7512 64.2972 46.0002 63.7827C46.0238 63.7339 46.0483 63.683 46.0737 63.6303C46.2825 63.1965 46.5489 62.6429 46.8539 62.1558C47.1898 61.6194 47.7241 60.9052 48.5655 60.4662L48.5964 60.4501L48.6278 60.4351C49.4693 60.0326 50.3522 60.027 50.9732 60.0714C51.5386 60.1118 52.1369 60.2187 52.6105 60.3033C52.6704 60.314 52.7284 60.3244 52.784 60.3342C53.3468 60.4335 53.7336 60.4905 54.0343 60.4929C54.0472 60.493 54.0595 60.493 54.0712 60.4929C54.0733 60.4863 54.0755 60.4795 54.0778 60.4725C54.1674 60.189 54.2316 59.8054 54.3105 59.2362C54.3179 59.1834 54.3254 59.1284 54.3331 59.0715C54.3987 58.5916 54.4823 57.9804 54.6226 57.4224C54.7755 56.8148 55.0638 55.9626 55.7385 55.2878L55.7577 55.2687L55.7773 55.2501C56.4596 54.6037 57.3026 54.322 57.9187 54.1698C58.4796 54.0313 59.0915 53.9483 59.5745 53.8828C59.6334 53.8748 59.6904 53.8671 59.7452 53.8596C60.318 53.7807 60.7035 53.7163 60.9878 53.6267C60.9918 53.6254 60.9957 53.6242 60.9995 53.6229C60.9995 53.6168 60.9994 53.6105 60.9993 53.6041C60.9937 53.3023 60.9323 52.9167 60.8276 52.3473C60.8195 52.3031 60.8111 52.2576 60.8024 52.2107C60.7127 51.7265 60.5974 51.104 60.5585 50.5107C60.5173 49.8809 60.5349 48.9911 60.9655 48.1454C61.3893 47.2823 62.1095 46.7401 62.6384 46.4066C63.1334 46.0944 63.6994 45.824 64.14 45.6134C64.1881 45.5905 64.2346 45.5683 64.2794 45.5468C64.8004 45.2967 65.1475 45.1184 65.3923 44.945C65.4007 44.9391 65.4087 44.9334 65.4163 44.9278C65.4136 44.9197 65.4108 44.9113 65.4078 44.9026C65.3121 44.6233 65.1373 44.2811 64.8619 43.7763C64.8386 43.7335 64.8143 43.6892 64.7892 43.6434C64.5553 43.2163 64.2546 42.6672 64.0336 42.1218C63.7926 41.5268 63.5294 40.669 63.6751 39.7216L63.677 39.7098L63.677 39.7098C63.8282 38.7649 64.3533 38.0329 64.7567 37.556C65.1264 37.1191 65.5727 36.6968 65.9227 36.3656C65.965 36.3256 66.0059 36.287 66.045 36.2498C66.46 35.8555 66.7331 35.5807 66.9106 35.3431C66.9148 35.3374 66.9189 35.3319 66.9228 35.3266C66.9196 35.3223 66.9164 35.318 66.9131 35.3135C66.7381 35.0806 66.4651 34.8078 66.0519 34.4233C66.0008 34.3757 65.9466 34.3256 65.89 34.2733C65.5475 33.9567 65.1192 33.5607 64.7628 33.1604C64.3621 32.7104 63.8194 32.0088 63.6295 31.0975L63.6188 31.0459L63.6107 30.9937C63.4653 30.0481 63.7275 29.1875 63.9665 28.5913C64.189 28.0362 64.4919 27.4781 64.7281 27.043C64.7508 27.0012 64.7729 26.9605 64.7942 26.921C65.0711 26.4093 65.2477 26.0629 65.3447 25.7818C65.3453 25.7803 65.3458 25.7787 65.3463 25.7772C65.3402 25.7728 65.3339 25.7682 65.3273 25.7635C65.0886 25.5922 64.748 25.4148 64.2335 25.1659C64.1846 25.1423 64.1337 25.1178 64.081 25.0924C63.6473 24.8836 63.0936 24.6172 62.6065 24.3122C62.0701 23.9763 61.3559 23.442 60.9169 22.6005L60.9008 22.5697L60.8858 22.5383C60.4833 21.6968 60.4777 20.8139 60.5221 20.1929C60.5625 19.6275 60.6694 19.0292 60.754 18.5556C60.7647 18.4956 60.7751 18.4377 60.7849 18.3821C60.8842 17.8193 60.9412 17.4325 60.9436 17.1318C60.9437 17.1232 60.9437 17.1149 60.9437 17.1068C60.929 17.1019 60.9133 17.0968 60.8964 17.0916C60.5991 16.9994 60.205 16.9346 59.6325 16.8558C59.5806 16.8487 59.5266 16.8413 59.4709 16.8338C58.9865 16.768 58.3716 16.6845 57.8107 16.5437C57.2017 16.3908 56.3492 16.1026 55.6742 15.4275C54.9994 14.7528 54.7111 13.9006 54.5582 13.2929C54.4179 12.735 54.3344 12.1238 54.2688 11.6439C54.261 11.587 54.2535 11.532 54.2462 11.4792C54.1672 10.9099 54.103 10.5264 54.0134 10.2429C54.0121 10.2388 54.0108 10.2348 54.0096 10.2309C54.0033 10.231 53.997 10.2311 53.9904 10.2312C53.6887 10.2368 53.3031 10.2981 52.7336 10.4028C52.6895 10.4109 52.6439 10.4194 52.5971 10.4281C52.1129 10.5178 51.4904 10.6331 50.897 10.672C50.2597 10.7137 49.3559 10.6952 48.5012 10.2492C47.6597 9.8102 47.1254 9.09599 46.7895 8.55957C46.4845 8.07245 46.2181 7.51882 46.0093 7.08508C45.9839 7.03238 45.9594 6.98145 45.9358 6.93263C45.6869 6.41813 45.5095 6.07753 45.3382 5.83874C45.3315 5.82931 45.325 5.82039 45.3187 5.81196C45.3119 5.81414 45.3049 5.81642 45.2976 5.81883C45.0158 5.91236 44.6691 6.08364 44.1581 6.3517C44.1179 6.37277 44.0765 6.3946 44.0338 6.41705C43.5993 6.6458 43.0428 6.93872 42.49 7.15331C41.9007 7.38207 41.061 7.6288 40.1402 7.49577C39.1903 7.3721 38.4474 6.86435 37.9653 6.47394C37.5099 6.10517 37.0709 5.65567 36.7282 5.30483C36.6929 5.26864 36.6585 5.23351 36.6253 5.19962C36.2206 4.78656 35.937 4.51094 35.6894 4.32946C35.6689 4.31445 35.6502 4.30121 35.6331 4.28956C35.6126 4.30307 35.5896 4.31889 35.564 4.33738C35.3123 4.51894 35.0301 4.79086 34.6149 5.20607C34.5919 5.22907 34.5684 5.25263 34.5444 5.27671C34.1881 5.63357 33.7198 6.10264 33.2189 6.48389C32.7004 6.87859 31.9402 7.34517 30.9802 7.43768ZM45.4957 5.76839C45.4957 5.76841 45.4948 5.7685 45.493 5.76859ZM65.4866 25.8967C65.4866 25.8967 65.4861 25.8962 65.4853 25.8951C65.4861 25.8961 65.4866 25.8967 65.4866 25.8967ZM65.396 25.593C65.3962 25.5905 65.3963 25.5892 65.3964 25.5891C65.3964 25.5891 65.3963 25.5903 65.396 25.593ZM65.4603 45.1033C65.4603 45.1033 65.4602 45.1026 65.4602 45.1012ZM65.5543 44.8118C65.5551 44.8107 65.5556 44.8102 65.5556 44.8101C65.5557 44.8101 65.5552 44.8106 65.5543 44.8118ZM61.1811 53.5498C61.181 53.5498 61.1804 53.5503 61.1789 53.5511C61.1804 53.5502 61.1811 53.5498 61.1811 53.5498ZM54.0008 60.6656C54.0008 60.6656 54.0012 60.6649 54.0021 60.6635C54.0013 60.6649 54.0009 60.6656 54.0008 60.6656ZM45.2694 65.0359C45.2694 65.0358 45.2699 65.0354 45.271 65.0346C45.2699 65.0355 45.2694 65.0359 45.2694 65.0359ZM45.5574 64.9468C45.5591 64.9469 45.5601 64.947 45.5601 64.947ZM25.8636 64.947C25.8636 64.947 25.8645 64.9469 25.8663 64.9468ZM26.1527 65.0346C26.1537 65.0354 26.1542 65.0358 26.1542 65.0359C26.1542 65.0359 26.1537 65.0355 26.1527 65.0346ZM17.4228 60.6656C17.4228 60.6656 17.4223 60.6649 17.4215 60.6635C17.4224 60.6648 17.4228 60.6656 17.4228 60.6656ZM5.87269 44.8187C5.87271 44.8187 5.87316 44.8192 5.87398 44.8203C5.87308 44.8192 5.87267 44.8187 5.87269 44.8187ZM5.96323 45.1224C5.96307 45.1249 5.96291 45.1262 5.96287 45.1262C5.96283 45.1263 5.96291 45.125 5.96323 45.1224ZM4.20643 35.1636C4.20645 35.1636 4.20682 35.1645 4.20745 35.1661C4.20671 35.1645 4.2064 35.1636 4.20643 35.1636ZM4.20809 35.4825C4.2076 35.4838 4.20732 35.4844 4.2073 35.4844ZM5.77014 25.5477C5.77016 25.5477 5.77023 25.5484 5.77029 25.5497ZM5.67621 25.8392C5.67534 25.8403 5.67487 25.8409 5.67485 25.8409C5.67483 25.8409 5.67526 25.8403 5.67621 25.8392ZM10.0494 17.1012C10.0494 17.1012 10.0501 17.1007 10.0515 17.0999C10.0502 17.1008 10.0494 17.1012 10.0494 17.1012ZM25.9611 5.61514C25.9611 5.61516 25.9606 5.61561 25.9595 5.61644C25.9605 5.61553 25.9611 5.61512 25.9611 5.61514ZM25.6731 5.70421C25.6713 5.70412 25.6704 5.70402 25.6704 5.704ZM33.2238 1.09339C33.7826 0.690262 34.6101 0.230469 35.6474 0.230469C36.6844 0.230469 37.51 0.70446 38.0542 1.10332C38.6054 1.50736 39.1065 2.01646 39.4825 2.4002C39.5056 2.42379 39.5283 2.44699 39.5507 2.46982C39.9399 2.8673 40.2175 3.15067 40.4826 3.36534C40.594 3.45555 40.6681 3.50364 40.7086 3.52752C40.7573 3.51853 40.8631 3.49403 41.0425 3.42441C41.3721 3.29646 41.7304 3.1084 42.2223 2.85022L42.2999 2.80951C42.7709 2.56246 43.398 2.23474 44.0377 2.02244C44.6664 1.8138 45.5907 1.61639 46.5703 1.93895C47.5536 2.25737 48.1912 2.95327 48.5887 3.50758C48.9889 4.06558 49.3025 4.70688 49.5364 5.19039C49.5595 5.23804 49.5819 5.28445 49.6038 5.32969C49.833 5.80408 49.9997 6.14926 50.1797 6.43673C50.2593 6.56378 50.3183 6.64022 50.3547 6.68304C50.4083 6.68698 50.4985 6.68949 50.6357 6.68051C50.983 6.65777 51.3792 6.58487 51.9327 6.48303L52.0104 6.46874C52.5355 6.37222 53.2365 6.24444 53.9166 6.2319C54.5895 6.21949 55.5377 6.30869 56.3836 6.91295C57.2332 7.51978 57.6235 8.39233 57.8273 9.03718C58.0335 9.68927 58.1343 10.3963 58.2082 10.9297C58.2151 10.9792 58.2218 11.0275 58.2283 11.0746C58.3012 11.6024 58.3543 11.9868 58.4374 12.3172C58.4697 12.4457 58.4987 12.5304 58.519 12.5825C58.5711 12.6028 58.6559 12.6318 58.7846 12.6641C59.1176 12.7477 59.5067 12.801 60.0422 12.8745C60.0865 12.8806 60.1318 12.8868 60.1781 12.8932C60.7163 12.9673 61.4248 13.0675 62.0813 13.2711C62.7312 13.4727 63.5945 13.8521 64.2165 14.6685L64.2352 14.693L64.2531 14.7181C64.8502 15.554 64.949 16.4912 64.9435 17.1646C64.9379 17.8458 64.8179 18.5455 64.724 19.0773C64.7139 19.1346 64.704 19.1904 64.6944 19.2447C64.6035 19.7574 64.5363 20.1367 64.5119 20.4778C64.5024 20.6118 64.5029 20.7051 64.5058 20.7658C64.5512 20.8025 64.6223 20.8549 64.7294 20.922C65.0168 21.102 65.362 21.2687 65.8364 21.4979C65.8816 21.5198 65.928 21.5422 65.9757 21.5653C66.4592 21.7992 67.1005 22.1128 67.6585 22.513C68.2126 22.9104 68.9083 23.5477 69.2269 24.5306C69.5541 25.5235 69.3428 26.4579 69.1261 27.0863C68.9051 27.7267 68.5667 28.3542 68.3124 28.8243L68.2738 28.8956C68.0059 29.3906 67.8115 29.7499 67.6793 30.0796C67.6386 30.1811 67.6131 30.2584 67.597 30.3145C67.6313 30.3606 67.6806 30.4223 67.7502 30.5005C67.9667 30.7436 68.2302 30.9879 68.5816 31.3137C68.6439 31.3715 68.709 31.4319 68.777 31.4952C69.1767 31.8672 69.6965 32.3591 70.1111 32.9109C70.5217 33.4574 71 34.2829 71 35.3255C71 36.3674 70.5221 37.1921 70.1155 37.7365C69.7055 38.2856 69.1898 38.7794 68.8 39.1498C68.7624 39.1855 68.7257 39.2203 68.6899 39.2543C68.3062 39.6184 68.028 39.8824 67.8106 40.1394C67.7292 40.2355 67.679 40.3054 67.6491 40.3511C67.663 40.4058 67.6896 40.4933 67.741 40.6199C67.87 40.9385 68.0582 41.2833 68.3201 41.7631C68.3376 41.7951 68.3554 41.8276 68.3735 41.8609C68.6293 42.3298 68.9696 42.9575 69.1917 43.6058C69.4134 44.2526 69.6124 45.1812 69.2952 46.1726C68.9753 47.1722 68.2621 47.8142 67.7042 48.2093C67.1422 48.6073 66.4953 48.9201 66.0103 49.1529L65.9065 49.2026C65.4114 49.4401 65.0585 49.6093 64.7719 49.79C64.6551 49.8637 64.5862 49.9174 64.549 49.9491C64.5444 49.9991 64.5398 50.0941 64.55 50.2494C64.5727 50.5967 64.6456 50.9929 64.7475 51.5465L64.7617 51.6241C64.8583 52.1492 64.986 52.8501 64.9986 53.5303C65.011 54.2032 64.9218 55.1513 64.3175 55.9973C63.7104 56.8472 62.8374 57.2375 62.1911 57.4414C61.5377 57.6475 60.8286 57.7481 60.2908 57.8222C60.2366 57.8296 60.1838 57.8369 60.1322 57.8439C59.6069 57.9159 59.2172 57.9693 58.8778 58.0531C58.733 58.0889 58.6377 58.1214 58.5789 58.1446C58.5589 58.1973 58.5318 58.2789 58.5018 58.3982C58.4187 58.7286 58.3656 59.113 58.2927 59.6407C58.2862 59.6879 58.2795 59.7362 58.2726 59.7857C58.1986 60.3191 58.0979 61.0261 57.8917 61.6782C57.6879 62.3231 57.2976 63.1956 56.448 63.8024C55.6121 64.3995 54.6749 64.4983 54.0015 64.4928C53.3203 64.4872 52.6206 64.3671 52.0888 64.2733C52.0314 64.2632 51.9757 64.2533 51.9214 64.2437C51.4087 64.1528 51.0294 64.0856 50.6882 64.0612C50.5542 64.0517 50.461 64.0522 50.4002 64.0551C50.3636 64.1005 50.3112 64.1716 50.2441 64.2786C50.0641 64.5661 49.8973 64.9113 49.6681 65.3857C49.6463 65.431 49.6239 65.4774 49.6008 65.525C49.3669 66.0085 49.0533 66.6498 48.6531 67.2078C48.2555 67.7622 47.6178 68.4582 46.6341 68.7766C45.6548 69.0989 44.7307 68.9016 44.1021 68.6929C43.4624 68.4806 42.8352 68.1529 42.3643 67.9059L42.2869 67.8652C41.7949 67.607 41.4365 67.4189 41.1069 67.291C40.9548 67.2319 40.8556 67.2053 40.7993 67.1931C40.7516 67.222 40.671 67.2758 40.5541 67.3713C40.2917 67.5859 40.0219 67.8588 39.654 68.231C39.6169 68.2685 39.5789 68.307 39.5397 68.3466C39.1606 68.7297 38.6588 69.232 38.1052 69.6308C37.5571 70.0256 36.7367 70.4849 35.7118 70.4849C34.6748 70.4849 33.8492 70.0109 33.3051 69.6121C32.7539 69.208 32.2528 68.6989 31.8768 68.3152L31.8087 68.2457C31.4194 67.8481 31.1418 67.5647 30.8767 67.35C30.7653 67.2598 30.6911 67.2117 30.6506 67.1879C30.6019 67.1969 30.4961 67.2213 30.3168 67.291C29.9871 67.4189 29.6288 67.607 29.1368 67.8652L29.0593 67.9059C28.5884 68.1529 27.9612 68.4806 27.3215 68.6929C26.693 68.9016 25.7689 69.0989 24.7895 68.7766C23.8058 68.4582 23.1681 67.7622 22.7705 67.2078C22.3703 66.6498 22.0568 66.0085 21.8228 65.525C21.7997 65.4773 21.7773 65.4309 21.7554 65.3857C21.5263 64.9113 21.3595 64.5661 21.1795 64.2786C21.0999 64.1516 21.0409 64.0752 21.0046 64.0323C20.9509 64.0284 20.8608 64.0259 20.7236 64.0349C20.3763 64.0576 19.98 64.1305 19.4265 64.2323L19.3488 64.2466C18.8237 64.3432 18.1228 64.4709 17.4426 64.4835C16.7697 64.4959 15.8216 64.4067 14.9756 63.8024C14.1261 63.1956 13.7358 62.323 13.5319 61.6782C13.3258 61.0261 13.225 60.3191 13.151 59.7857C13.1442 59.7362 13.1375 59.6879 13.131 59.6408C13.0581 59.113 13.005 58.7286 12.9218 58.3982C12.8895 58.2697 12.8606 58.1849 12.8402 58.1329C12.7881 58.1125 12.7033 58.0836 12.5747 58.0513C12.2417 57.9677 11.8526 57.9143 11.3171 57.8408C11.2728 57.8348 11.2275 57.8286 11.1811 57.8222C10.643 57.7481 9.93443 57.6478 9.278 57.4443C8.62802 57.2427 7.76473 56.8633 7.14271 56.0469L7.12403 56.0224L7.10611 55.9973C6.50905 55.1614 6.41021 54.2242 6.41573 53.5508C6.42132 52.8696 6.54139 52.1699 6.63524 51.6381C6.64537 51.5807 6.65525 51.5249 6.66488 51.4706C6.75573 50.9579 6.82295 50.5787 6.84731 50.2375C6.85688 50.1035 6.85636 50.0103 6.85343 49.9495C6.80807 49.9129 6.73695 49.8605 6.62989 49.7934C6.34243 49.6134 5.99724 49.4466 5.52285 49.2175C5.47761 49.1956 5.4312 49.1732 5.38355 49.1501C4.90004 48.9162 4.25874 48.6026 3.70074 48.2024C3.14643 47.8049 2.45052 47.1673 2.1321 46.1839C1.80528 45.1913 2.01649 44.2573 2.2332 43.6291C2.45412 42.9887 2.79253 42.3612 3.04687 41.8911L3.08532 41.82C3.35326 41.3249 3.54777 40.9655 3.67994 40.6358C3.71307 40.5531 3.73615 40.4865 3.75224 40.4343C3.70752 40.3751 3.64374 40.2971 3.55383 40.199C3.324 39.9482 3.05501 39.7014 2.71046 39.3853C2.636 39.317 2.55802 39.2454 2.47613 39.1699C2.06645 38.7921 1.54178 38.2983 1.12385 37.7444C0.70969 37.1954 0.230469 36.3693 0.230469 35.3255C0.230469 34.2836 0.708369 33.4589 1.11494 32.9145C1.52499 32.3654 2.04063 31.8716 2.43046 31.5012C2.46811 31.4654 2.5048 31.4306 2.54058 31.3967C2.9243 31.0326 3.20247 30.7686 3.41988 30.5116C3.50123 30.4154 3.55142 30.3455 3.58135 30.2999C3.56744 30.2452 3.54083 30.1577 3.48952 30.0311C3.36043 29.7124 3.17222 29.3676 2.91029 28.8878C2.89286 28.8558 2.8751 28.8233 2.857 28.7901C2.60119 28.3211 2.2609 27.6935 2.03873 27.0452C1.81703 26.3984 1.61804 25.4698 1.9353 24.4784C2.25516 23.4788 2.96837 22.8368 3.52629 22.4417C4.08829 22.0437 4.73519 21.7309 5.22019 21.4981C5.25549 21.4812 5.29009 21.4646 5.32402 21.4483C5.81912 21.2109 6.17198 21.0416 6.45852 20.8609C6.57536 20.7873 6.64429 20.7335 6.68144 20.7019C6.68613 20.6519 6.69067 20.5569 6.68051 20.4016C6.65777 20.0543 6.58487 19.6581 6.48303 19.1045C6.47833 19.079 6.47357 19.0531 6.46874 19.0269C6.37222 18.5018 6.24444 17.8008 6.2319 17.1207C6.21949 16.4478 6.30869 15.4997 6.91295 14.6537C7.52005 13.8038 8.39304 13.4135 9.03936 13.2096C9.69273 13.0035 10.4018 12.9029 10.9397 12.8288C10.9939 12.8213 11.0468 12.8141 11.0983 12.807C11.6236 12.7351 12.0133 12.6817 12.3527 12.5978C12.4975 12.5621 12.5928 12.5295 12.6516 12.5064C12.6716 12.4536 12.6987 12.3721 12.7287 12.2528C12.8118 11.9224 12.8649 11.538 12.9378 11.0102C12.9443 10.9631 12.951 10.9148 12.9579 10.8653C13.0318 10.3319 13.1326 9.62488 13.3388 8.97279C13.5426 8.32794 13.9329 7.4554 14.7825 6.84856C15.6184 6.2515 16.5556 6.15266 17.229 6.15818C17.9102 6.16377 18.6099 6.28384 19.1416 6.37769C19.1991 6.38782 19.2549 6.39771 19.3092 6.40733C19.8218 6.49819 20.2011 6.5654 20.5422 6.58976C20.6762 6.59934 20.7695 6.59881 20.8302 6.59588C20.8668 6.55052 20.9193 6.4794 20.9863 6.37234C21.1663 6.08489 21.3331 5.73973 21.5623 5.26538C21.5841 5.22012 21.6066 5.17368 21.6296 5.126C21.8636 4.64249 22.1772 4.00119 22.5774 3.44319C22.9749 2.88888 23.6125 2.19298 24.5958 1.87456C25.5754 1.552 26.4997 1.74941 27.1284 1.95805C27.7681 2.17035 28.3952 2.49808 28.8662 2.74512C28.8924 2.75888 28.9182 2.77244 28.9437 2.78582C29.4357 3.04401 29.794 3.23207 30.1236 3.36002C30.3526 3.44892 30.4616 3.46424 30.4851 3.46766L30.5277 3.46111L30.5525 3.45928C30.5835 3.44457 30.6623 3.40299 30.7962 3.30107C31.0704 3.09234 31.3616 2.80258 31.7865 2.37764L31.802 2.36218C32.174 1.99016 32.6743 1.48982 33.2238 1.09339Z" fill="#FF7A00"/>
<path fill-rule="evenodd" clip-rule="evenodd" d="M35.6458 15.8848C24.7588 15.8848 16.0117 24.5986 16.0117 35.3257C16.0117 46.0528 24.7588 54.7666 35.6458 54.7666C46.5329 54.7666 55.2799 46.0528 55.2799 35.3257C55.2799 24.6024 46.4724 15.8848 35.6458 15.8848ZM12.0117 35.3257C12.0117 22.3583 22.5808 11.8848 35.6458 11.8848C48.6425 11.8848 59.2799 22.3545 59.2799 35.3257C59.2799 48.2931 48.7108 58.7666 35.6458 58.7666C22.5808 58.7666 12.0117 48.2931 12.0117 35.3257Z" fill="#FF7A00"/>
<path fill-rule="evenodd" clip-rule="evenodd" d="M35.645 21.7104L39.8031 30.0266L49.171 31.446L42.3707 37.9629L43.9818 47.1555L35.6398 42.795L27.248 47.1323L28.8565 37.9541L22.1543 31.4406L31.487 30.0266L35.645 21.7104ZM35.645 30.6547L34.137 33.6707L30.721 34.1883L33.1618 36.5603L32.5812 39.8732L35.6502 38.2869L38.6404 39.85L38.0624 36.5515L40.5338 34.183L37.153 33.6707L35.645 30.6547Z" fill="#FF7A00"/>
</svg>
