<svg width="21" height="25" viewBox="0 0 21 25" fill="none" xmlns="http://www.w3.org/2000/svg">
<path fill-rule="evenodd" clip-rule="evenodd" d="M11.4114 24.2293C13.8638 21.5656 20.1423 14.3253 20.1423 10.0162C20.1423 4.66133 15.8013 0.320312 10.4464 0.320312C5.0915 0.320312 0.750488 4.66133 0.750488 10.0162C0.750488 14.3253 7.029 21.5656 9.48139 24.2293C10.0065 24.7997 10.8863 24.7997 11.4114 24.2293ZM10.4459 14.1709C12.7408 14.1709 14.6013 12.3105 14.6013 10.0155C14.6013 7.72053 12.7408 5.8601 10.4459 5.8601C8.15091 5.8601 6.29047 7.72053 6.29047 10.0155C6.29047 12.3105 8.15091 14.1709 10.4459 14.1709Z" fill="#FF7A00"/>
</svg>
