<svg width="23" height="22" viewBox="0 0 23 22" fill="none" xmlns="http://www.w3.org/2000/svg">
<path fill-rule="evenodd" clip-rule="evenodd" d="M0.5 2C0.5 0.895431 1.39543 0 2.5 0H20.5C21.6046 0 22.5 0.895431 22.5 2V20C22.5 21.1046 21.6046 22 20.5 22H2.5C1.39543 22 0.5 21.1046 0.5 20V2ZM10.5 2L2.5 2V20H10.5V2ZM12.5 2V20H20.5V2H12.5ZM4.5 5C4.5 3.89543 5.39543 3 6.5 3C7.60457 3 8.5 3.89543 8.5 5C8.5 6.10457 7.60457 7 6.5 7C5.39543 7 4.5 6.10457 4.5 5ZM14.5 5C14.5 3.89543 15.3954 3 16.5 3C17.6046 3 18.5 3.89543 18.5 5C18.5 6.10457 17.6046 7 16.5 7C15.3954 7 14.5 6.10457 14.5 5ZM9 9V11H4V9H9ZM19 9V11H14V9H19ZM9 12.5V14.5H4V12.5H9ZM19 12.5V14.5H14V12.5H19ZM7.5 18H4V16H7.5V18ZM17.5 18H14V16H17.5V18Z" fill="#FF7A00"/>
</svg>
