<svg width="64" height="81" viewBox="0 0 64 81" fill="none" xmlns="http://www.w3.org/2000/svg">
<g clip-path="url(#clip0_422_2958)">
<path fill-rule="evenodd" clip-rule="evenodd" d="M26.3639 51.6381C26.4517 50.6028 27.3177 49.8071 28.3567 49.8071H36.5699C37.6111 49.8071 38.4781 50.606 38.5632 51.6437L39.0654 57.7677C40.9346 58.3282 42.705 59.1122 44.3577 60.0777L48.8641 56.2667C49.658 55.5953 50.8339 55.6442 51.5694 56.3792L57.3741 62.1808C58.1112 62.9175 58.1591 64.0966 57.4842 64.8906L53.5213 69.5533C54.4334 71.2357 55.1403 73.0163 55.619 74.9104L63.1367 75.4251L62.8636 79.4157L53.8476 78.7985C52.9345 78.736 52.1803 78.0617 52.0165 77.1612C51.5699 74.7064 50.6781 72.473 49.3835 70.3915C48.9243 69.6531 48.9947 68.7026 49.5579 68.04L53.2416 63.7059L50.0426 60.5086L45.8275 64.0733C45.1472 64.6486 44.1684 64.7046 43.427 64.2106C41.389 62.8527 39.1393 61.8438 36.7346 61.2849C35.8878 61.0881 35.2652 60.3668 35.1941 59.5003L34.7272 53.8071H30.1943L29.732 59.2589C29.6557 60.159 28.9855 60.8962 28.0968 61.0577C25.6402 61.5041 23.4053 62.3956 21.3225 63.6896C20.5846 64.148 19.635 64.0776 18.9727 63.5154L14.6345 59.8322L11.4354 63.0295L15.0007 67.2406C15.5831 67.9286 15.6334 68.9211 15.1234 69.6644C13.7788 71.6242 12.7707 73.8638 12.2111 76.269C12.0115 77.1266 11.2746 77.7528 10.3961 77.8113L1.13312 78.4285L0.867188 74.4373L8.70124 73.9154C9.25819 72.0679 10.0354 70.3172 10.9954 68.7002L7.19286 64.2088C6.52047 63.4146 6.56943 62.2375 7.30545 61.5019L13.1102 55.7003C13.8467 54.9643 15.0247 54.9164 15.8185 55.5903L20.4849 59.5521C22.176 58.6361 23.9663 57.9272 25.8712 57.4486L26.3639 51.6381Z" fill="#FF7A00"/>
<path fill-rule="evenodd" clip-rule="evenodd" d="M31.9365 67.2617C24.3328 67.2617 18.1895 73.4033 18.1895 81H14.1895C14.1895 71.192 22.1258 63.2617 31.9365 63.2617V67.2617Z" fill="#FF7A00"/>
<path fill-rule="evenodd" clip-rule="evenodd" d="M32.0008 73.8657C28.0406 73.8657 24.8613 77.0448 24.8613 81.0001H20.8613C20.8613 74.8336 25.8335 69.8657 32.0008 69.8657C38.168 69.8657 43.1402 74.8336 43.1402 81.0001H39.1402C39.1402 77.0448 35.961 73.8657 32.0008 73.8657Z" fill="#FF7A00"/>
<path fill-rule="evenodd" clip-rule="evenodd" d="M63.2681 22.3052V70.3841H59.2681V22.3052H63.2681Z" fill="#FF7A00"/>
<path fill-rule="evenodd" clip-rule="evenodd" d="M0.666016 2C0.666016 0.89543 1.56145 0 2.66602 0H40.9529V4H4.66602V70.3844H0.666016V2Z" fill="#FF7A00"/>
<path fill-rule="evenodd" clip-rule="evenodd" d="M45.1267 2.86914C45.8727 2.55895 46.7321 2.72812 47.305 3.2979L60.2731 16.1971C60.8473 16.7683 61.0204 17.6293 60.7114 18.378C60.4025 19.1267 59.6725 19.6151 58.8627 19.6151H45.8945C44.79 19.6151 43.8945 18.7197 43.8945 17.6151V4.71588C43.8945 3.90792 44.3807 3.17932 45.1267 2.86914ZM47.8945 9.52617V15.6151H54.016L47.8945 9.52617Z" fill="#FF7A00"/>
<path fill-rule="evenodd" clip-rule="evenodd" d="M32.9278 19.7383H11.376V15.7383H32.9278V19.7383Z" fill="#FF7A00"/>
<path fill-rule="evenodd" clip-rule="evenodd" d="M13.5142 46.3389H11.376V42.3389H13.5142V46.3389ZM22.067 46.3389H17.7906V42.3389H22.067V46.3389ZM28.4816 46.3389H26.3434V42.3389H28.4816V46.3389Z" fill="#FF7A00"/>
<path fill-rule="evenodd" clip-rule="evenodd" d="M51.0214 28.626H11.376V24.626H51.0214V28.626Z" fill="#FF7A00"/>
<path fill-rule="evenodd" clip-rule="evenodd" d="M51.0214 37.5132H11.376V33.5132H51.0214V37.5132Z" fill="#FF7A00"/>
</g>
<defs>
<clipPath id="clip0_422_2958">
<rect width="64" height="81.0001" fill="white"/>
</clipPath>
</defs>
</svg>
