<svg width="16" height="20" viewBox="0 0 16 20" fill="none" xmlns="http://www.w3.org/2000/svg">
<path fill-rule="evenodd" clip-rule="evenodd" d="M15.7071 5.29289C15.8946 5.48043 16 5.73478 16 6L16 18C16 19.1046 15.1046 20 14 20L2 20C0.895429 20 -8.35087e-07 19.1046 -7.86805e-07 18L-8.74228e-08 2C-3.91405e-08 0.89543 0.895431 -6.60242e-07 2 -6.11959e-07L10 -2.62268e-07C10.2652 -2.50675e-07 10.5196 0.105357 10.7071 0.292893L15.7071 5.29289ZM14 18L14 7L9 7L9 2L2 2L2 18L14 18ZM11 3.41421L11 5L12.5858 5L11 3.41421ZM12 15L4 15L4 13L12 13L12 15ZM12 11L4 11L4 9L12 9L12 11Z" fill="#FF7A00"/>
</svg>
