<svg width="82" height="82" viewBox="0 0 82 82" fill="none" xmlns="http://www.w3.org/2000/svg">
<path fill-rule="evenodd" clip-rule="evenodd" d="M40.6334 4.21973C20.5369 4.21973 4.21875 20.6838 4.21875 41.0002C4.21875 61.3166 20.5369 77.7807 40.6334 77.7807V81.7807C18.2908 81.7807 0.21875 63.4887 0.21875 41.0002C0.21875 18.5118 18.2908 0.219727 40.6334 0.219727C62.9759 0.219727 81.048 18.5118 81.048 41.0002H77.048C77.048 20.6838 60.7299 4.21973 40.6334 4.21973Z" fill="#FF7A00"/>
<path fill-rule="evenodd" clip-rule="evenodd" d="M77.0469 41H81.0469V42.2195H77.0469V41Z" fill="#FF7A00"/>
<path fill-rule="evenodd" clip-rule="evenodd" d="M80.856 44.9065C80.8063 45.4356 80.7466 45.9618 80.677 46.4849L76.7119 45.9573C76.7747 45.4853 76.8286 45.0104 76.8735 44.5327L80.856 44.9065ZM80.136 49.6145C79.9139 50.6557 79.6522 51.6821 79.3527 52.6921L75.5178 51.5547C75.7878 50.6443 76.0237 49.7189 76.224 48.7801L80.136 49.6145ZM78.3313 55.6989C77.9503 56.6912 77.5319 57.6646 77.0778 58.6173L73.467 56.8962C73.8764 56.0372 74.2537 55.1596 74.5971 54.2652L78.3313 55.6989ZM75.6003 61.4287C75.0705 62.348 74.506 63.2444 73.9087 64.116L70.609 61.8551C71.1478 61.0688 71.6569 60.2603 72.1347 59.4313L75.6003 61.4287ZM72.0137 66.6635C71.3487 67.4884 70.6524 68.2865 69.9266 69.0561L67.0167 66.3116C67.6714 65.6174 68.2996 64.8973 68.8995 64.1531L72.0137 66.6635ZM67.6599 71.2797C66.876 71.991 66.0644 72.6718 65.2269 73.3204L62.7778 70.1578C63.533 69.573 64.2649 68.959 64.9719 68.3174L67.6599 71.2797ZM62.6415 75.1654C61.7572 75.7455 60.849 76.2918 59.9187 76.8024L57.9942 73.2958C58.8321 72.8359 59.6504 72.3438 60.4473 71.8209L62.6415 75.1654ZM57.0744 78.2202C56.1109 78.6537 55.1276 79.0504 54.1263 79.4084L52.7797 75.6418C53.6808 75.3197 54.5657 74.9627 55.433 74.5725L57.0744 78.2202ZM51.093 80.3583C50.0748 80.6331 49.041 80.8687 47.9934 81.0636L47.262 77.131C48.2047 76.9557 49.1347 76.7437 50.0507 76.4965L51.093 80.3583ZM44.8471 81.5201C44.3217 81.5751 43.7935 81.6199 43.2626 81.6544L43.0034 77.6628C43.4816 77.6318 43.9573 77.5914 44.4303 77.5418L44.8471 81.5201Z" fill="#FF7A00"/>
<path fill-rule="evenodd" clip-rule="evenodd" d="M41.8523 77.7803V81.7803H40.6328V77.7803H41.8523Z" fill="#FF7A00"/>
<path fill-rule="evenodd" clip-rule="evenodd" d="M53.5002 21.6221C54.0337 21.6219 54.5451 21.8349 54.9208 22.2136L62.4208 29.7746C63.1933 30.5534 63.1943 31.8092 62.423 32.5893L35.5328 59.7844C35.1557 60.1658 34.6412 60.3797 34.1049 60.3782C33.5685 60.3766 33.0553 60.1597 32.6804 59.7762L19.4487 46.2396C18.685 45.4583 18.6896 44.2088 19.459 43.4331L26.959 35.8721C27.3348 35.4933 27.8464 35.2803 28.3801 35.2806C28.9137 35.2809 29.4251 35.4945 29.8005 35.8738L34.1723 40.2917L52.08 22.2145C52.4554 21.8355 52.9667 21.6222 53.5002 21.6221ZM53.5018 26.463L35.5924 44.5418C35.2167 44.9211 34.7049 45.1344 34.1711 45.1343C33.6372 45.1341 33.1255 44.9205 32.75 44.5411L28.3772 40.1223L23.6857 44.8519L34.1188 55.5254L58.186 31.1853L53.5018 26.463Z" fill="#FF7A00"/>
</svg>
