<svg width="22" height="21" viewBox="0 0 22 21" fill="none" xmlns="http://www.w3.org/2000/svg">
<path fill-rule="evenodd" clip-rule="evenodd" d="M21.7286 0.315138C22.0103 0.614823 22.0798 1.05642 21.9037 1.42812L12.9037 20.4281C12.7262 20.803 12.3355 21.0294 11.9219 20.997C11.5083 20.9646 11.1577 20.6802 11.0406 20.2822L9.27594 14.2822C9.18211 13.9632 9.253 13.6184 9.46509 13.3623L15.5368 6.02969L7.57208 11.5849C7.3232 11.7585 7.00895 11.8097 6.71784 11.7241L0.717841 9.9594C0.308968 9.83914 0.0212432 9.47296 0.00112273 9.04725C-0.0189977 8.62153 0.232909 8.22984 0.628617 8.07156L20.6286 0.0715598C21.0105 -0.081191 21.447 0.0154535 21.7286 0.315138ZM13.281 5.16467L4.05336 8.85573L6.82165 9.66993L13.281 5.16467ZM16.6789 7.78631L11.3447 14.2281L12.2192 17.2013L16.6789 7.78631Z" fill="white"/>
</svg>
