<svg width="82" height="82" viewBox="0 0 82 82" fill="none" xmlns="http://www.w3.org/2000/svg">
<path d="M30.9625 27.236C23.3021 26.4263 15.2769 28.9178 9.4404 34.8976C5.73178 38.5726 3.42149 43.1197 2.32715 47.8537C4.45504 49.8469 6.64374 51.9024 8.77163 53.958L30.9625 27.236Z" fill="#FF7A00"/>
<path fill-rule="evenodd" clip-rule="evenodd" d="M8.02083 33.4885C14.3149 27.0477 22.9538 24.3782 31.1728 25.247C31.9062 25.3245 32.5375 25.7993 32.8153 26.4825C33.0931 27.1657 32.9724 27.9463 32.5012 28.5136L10.3103 55.2356C9.95478 55.6637 9.43695 55.9243 8.88129 55.9548C8.32563 55.9853 7.78239 55.7829 7.38214 55.3963C5.26647 53.3526 3.08786 51.3065 0.959918 49.3132C0.43946 48.8256 0.217966 48.0979 0.378584 47.4031C1.54743 42.3468 4.0227 37.4553 8.02083 33.4885ZM26.7952 29.1236C20.9839 29.4392 15.2544 31.8041 10.8717 36.2944L10.8482 36.3181C7.72199 39.416 5.66233 43.1995 4.55563 47.201C5.89544 48.4575 7.25614 49.7383 8.60613 51.0267L26.7952 29.1236Z" fill="white"/>
<path d="M54.9768 50.4072L27.9829 73.2673C30.2932 75.6965 32.5427 78.1258 34.7314 80.5551C39.4128 79.4961 43.9117 77.1292 47.5596 73.3918C53.7608 67.1629 56.2535 58.5671 54.9768 50.4072Z" fill="#FF7A00"/>
<path fill-rule="evenodd" clip-rule="evenodd" d="M55.6747 48.533C56.3523 48.7853 56.841 49.3837 56.9528 50.0981C58.3229 58.855 55.6504 68.0952 48.9838 74.796C45.0539 78.8195 40.208 81.3668 35.1726 82.5058C34.4668 82.6655 33.7299 82.4314 33.2455 81.8938C31.0691 79.4782 28.8319 77.0621 26.5337 74.6456C26.1543 74.2467 25.9562 73.7091 25.9858 73.1595C26.0155 72.6099 26.2704 72.0968 26.6904 71.741L53.6843 48.881C54.2361 48.4137 54.9971 48.2807 55.6747 48.533ZM30.8878 73.4281C32.4221 75.0595 33.9294 76.6911 35.4096 78.323C39.3275 77.2383 43.0553 75.1433 46.1283 71.9949L46.1422 71.9808C50.9354 67.1662 53.336 60.8185 53.3012 54.4471L30.8878 73.4281Z" fill="white"/>
<path d="M16.0659 46.0468L35.7642 65.9793L64.7035 41.4375C76.1942 31.7204 80.9364 16.8333 78.4437 2.9429C64.6428 0.389052 49.9907 5.1853 40.3239 16.771L16.0659 46.0468Z" fill="#FF7A00"/>
<path fill-rule="evenodd" clip-rule="evenodd" d="M38.7883 15.4896C48.9316 3.33265 64.3174 -1.70524 78.8076 0.976152C79.6261 1.12761 80.2652 1.7702 80.4122 2.5895C83.0243 17.1449 78.0594 32.7622 65.995 42.9645L37.0577 67.5045C36.2603 68.1808 35.0766 68.1287 34.3416 67.385L14.6434 47.4525C13.921 46.7215 13.8702 45.562 14.5259 44.7706L38.7839 15.4948L38.7883 15.4896ZM41.8616 18.0498C41.8609 18.0506 41.8603 18.0514 41.8596 18.0522L18.7611 45.9286L35.884 63.2552L63.4121 39.9102C73.949 30.9996 78.5262 17.5008 76.6979 4.67989C63.9988 2.81054 50.7295 7.42318 41.8616 18.0498Z" fill="white"/>
<path d="M19.1664 71.9591C16.6737 74.5129 4.02796 78.1257 4.02796 78.1257C3.84557 78.3125 7.55419 65.3564 10.1077 62.8026C12.6003 60.2487 16.6737 60.2487 19.2272 62.8026C21.6591 65.3564 21.6591 69.4675 19.1664 71.9591Z" fill="#FF7A00"/>
<path fill-rule="evenodd" clip-rule="evenodd" d="M17.7956 64.1995C16.0129 62.4347 13.232 62.4649 11.5389 64.1996L11.522 64.2167C11.1753 64.5635 10.5918 65.5299 9.87995 67.1184C9.2097 68.6141 8.53412 70.4061 7.93185 72.1461C7.56635 73.202 7.23179 74.2274 6.94603 75.1393C7.87585 74.8401 8.92277 74.4921 9.99842 74.1135C11.7096 73.5112 13.4623 72.8423 14.9222 72.1791C16.4751 71.4736 17.4055 70.8999 17.7352 70.5621L17.7525 70.5445C19.4514 68.8465 19.4819 65.9893 17.7956 64.1995ZM4.63704 80.0315C4.40209 80.1072 4.09894 80.1576 3.74728 80.1084C2.45514 79.9276 2.12778 78.775 2.09896 78.6735L2.09853 78.672C2.02337 78.4077 2.02192 78.19 2.02153 78.1309L2.02153 78.1308C2.02092 78.0394 2.02657 77.9654 2.0304 77.9235C2.04344 77.7808 2.07024 77.6522 2.08012 77.6048L2.0802 77.6044C2.10836 77.4693 2.15025 77.2997 2.19671 77.1214C2.29286 76.7524 2.43907 76.2298 2.62344 75.6041C2.99305 74.3498 3.52872 72.6381 4.15188 70.8377C4.77315 69.0428 5.4921 67.1286 6.22969 65.4826C6.92342 63.9345 7.75784 62.3292 8.68422 61.3976C11.9717 58.0382 17.3192 58.0656 20.6415 61.3885C20.653 61.4 20.6644 61.4116 20.6756 61.4234C23.8335 64.7397 23.8612 70.0853 20.5885 73.3654C19.6705 74.3007 18.0908 75.133 16.5767 75.8209C14.9645 76.5533 13.0883 77.2665 11.3265 77.8866C9.55838 78.5089 7.87393 79.0485 6.6336 79.432C6.01264 79.624 5.50112 79.7775 5.14377 79.8832C4.96505 79.9361 4.82478 79.9771 4.72854 80.0051L4.63704 80.0315ZM5.99623 78.4197C5.99357 78.4342 5.99283 78.436 5.99606 78.4205C5.99612 78.4202 5.99618 78.4199 5.99623 78.4197Z" fill="white"/>
<path d="M69.2664 12.2242C72.367 15.3387 75.0421 18.64 77.3524 22.0659C79.1763 15.8993 79.6018 9.29665 78.4467 2.94318C72.1238 1.75969 65.6185 2.13343 59.478 4.0021C62.8827 6.36907 66.1657 9.10979 69.2664 12.2242Z" fill="#FF7A00"/>
<path fill-rule="evenodd" clip-rule="evenodd" d="M58.8953 2.08873C65.3411 0.127158 72.1723 -0.265877 78.8142 0.977326C79.6293 1.12989 80.2657 1.76958 80.414 2.58542C81.6277 9.26063 81.1784 16.18 79.2698 22.6331C79.0502 23.3756 78.4217 23.9247 77.6565 24.0426C76.8912 24.1605 76.1266 23.8261 75.6937 23.1841C73.451 19.8584 70.8558 16.6559 67.8486 13.6353C64.8321 10.6054 61.6412 7.94213 58.3359 5.64424C57.7067 5.2068 57.3828 4.44828 57.5019 3.69126C57.621 2.93425 58.1622 2.31184 58.8953 2.08873ZM64.0819 4.92635C66.3547 6.71931 68.5613 8.68171 70.6833 10.8132C72.7803 12.9196 74.6881 15.1087 76.4242 17.3619C77.1946 13.1822 77.3052 8.881 76.7023 4.67777C72.5029 4.05164 68.2375 4.14091 64.0819 4.92635Z" fill="white"/>
<path d="M64.2807 30.1009C60.7545 33.6514 55.0396 33.6514 51.5133 30.1009C47.9871 26.5504 47.9871 20.7575 51.5133 17.1448C55.0396 13.5943 60.7545 13.5943 64.2807 17.1448C67.8069 20.7575 67.8069 26.5504 64.2807 30.1009Z" fill="#FF7A00"/>
<path fill-rule="evenodd" clip-rule="evenodd" d="M52.9385 18.548C50.17 21.391 50.1894 25.9297 52.9324 28.6915C55.6765 31.4545 60.1176 31.4545 62.8616 28.6915C65.6046 25.9297 65.624 21.391 62.8555 18.548C60.113 15.7932 55.681 15.7932 52.9385 18.548ZM50.0943 15.7354C54.4026 11.3974 61.3914 11.3974 65.6997 15.7354L65.7119 15.7478C69.9898 20.1307 70.0072 27.1731 65.6997 31.5103C61.3914 35.8482 54.4026 35.8482 50.0943 31.5103C45.7868 27.1731 45.8042 20.1307 50.0821 15.7478L50.0943 15.7354Z" fill="white"/>
<path fill-rule="evenodd" clip-rule="evenodd" d="M41.5774 62.403L19.5688 40.1658L22.4119 37.3521L44.4204 59.5892L41.5774 62.403Z" fill="white"/>
</svg>
