<svg width="25" height="24" viewBox="0 0 25 24" fill="none" xmlns="http://www.w3.org/2000/svg">
<path fill-rule="evenodd" clip-rule="evenodd" d="M1.63371 2.03661C8.14831 0.101583 15.0511 -0.285903 21.7626 0.940236C22.5783 1.08926 23.2175 1.72621 23.3694 2.54142C24.6 9.14786 24.1443 15.9954 22.2095 22.38C21.9869 23.1148 21.3632 23.6573 20.6046 23.7759C19.846 23.8946 19.0865 23.5685 18.65 22.9368C16.3809 19.6525 13.7546 16.4893 10.7107 13.505C7.65743 10.5116 4.42706 7.87987 1.08018 5.60878C0.440683 5.17483 0.108428 4.41128 0.226771 3.64757C0.345114 2.88385 0.892875 2.25666 1.63371 2.03661ZM6.89532 4.88397C9.17228 6.64126 11.3835 8.56295 13.511 10.6488C15.6542 12.7499 17.6023 14.9347 19.3736 17.184C20.1586 13.0536 20.274 8.80261 19.6656 4.64871C15.4164 4.02841 11.1005 4.11322 6.89532 4.88397Z" fill="white"/>
</svg>
