<svg width="34" height="32" viewBox="0 0 34 32" fill="none" xmlns="http://www.w3.org/2000/svg">
<path fill-rule="evenodd" clip-rule="evenodd" d="M8.15308 9.05116C14.5217 2.69001 23.2507 0.0626693 31.5454 0.91847C32.2841 0.99469 32.9198 1.47399 33.1963 2.16327C33.4729 2.85254 33.3447 3.63828 32.8634 4.20393L10.4019 30.6039C10.0467 31.0214 9.53569 31.2748 8.98838 31.3049C8.44107 31.335 7.90539 31.1391 7.50657 30.7631C5.36508 28.744 3.15988 26.7225 1.00598 24.7532C0.470453 24.2636 0.242129 23.5223 0.40936 22.8162C1.59531 17.8089 4.10566 12.9706 8.15308 9.05116ZM27.1063 4.79768C21.2106 5.11281 15.405 7.4561 10.9697 11.8914L10.946 11.9147C7.79186 14.9654 5.71432 18.685 4.59453 22.6147C5.95763 23.8625 7.34195 25.1345 8.715 26.4138L27.1063 4.79768Z" fill="white"/>
</svg>
