<svg width="32" height="35" viewBox="0 0 32 35" fill="none" xmlns="http://www.w3.org/2000/svg">
<path fill-rule="evenodd" clip-rule="evenodd" d="M30.3529 0.928916C31.0242 1.18203 31.5085 1.77534 31.6221 2.48375C33.0132 11.1614 30.2968 20.307 23.5468 26.9292C19.5694 30.9038 14.6702 33.4155 9.58617 34.5379C8.89159 34.6912 8.16784 34.4642 7.68538 33.9415C5.48252 31.555 3.21799 29.1681 0.891763 26.7807C0.501801 26.3804 0.297057 25.8353 0.327118 25.2773C0.35718 24.7194 0.619306 24.1994 1.05001 23.8434L28.3731 1.25877C28.9261 0.801671 29.6816 0.675803 30.3529 0.928916ZM5.26656 25.5476C6.81262 27.1526 8.33152 28.7577 9.82325 30.3631C13.8131 29.2915 17.6049 27.2143 20.7254 24.0938L20.7395 24.0799C25.5929 19.3216 28.0145 13.0568 27.9755 6.77695L5.26656 25.5476Z" fill="white"/>
</svg>
