<svg width="22" height="22" viewBox="0 0 22 22" fill="none" xmlns="http://www.w3.org/2000/svg">
<path fill-rule="evenodd" clip-rule="evenodd" d="M16.0469 5.46021C14.2288 3.70356 11.3721 3.73315 9.64493 5.46033L9.62779 5.47727C9.27864 5.8181 8.69012 6.76877 7.97043 8.33636C7.29286 9.81219 6.60963 11.581 6.00031 13.2992C5.6355 14.3279 5.30116 15.3272 5.01465 16.2185C5.96533 15.9202 7.03894 15.5722 8.14244 15.1931C9.87526 14.5978 11.6509 13.9364 13.1306 13.2803C14.7043 12.5825 15.6502 12.0136 15.9857 11.6781L16.0033 11.6607C17.7095 9.99612 17.7402 7.21443 16.0469 5.46021ZM2.67383 21.0943C2.4429 21.167 2.14619 21.2151 1.80266 21.1681C0.52129 20.9932 0.184628 19.8589 0.150934 19.7433C0.0722886 19.4734 0.0707725 19.2506 0.07036 19.1901C0.0697224 19.0966 0.0756424 19.021 0.0796474 18.9782C0.0932172 18.8332 0.121014 18.703 0.131093 18.6558L0.13125 18.6551C0.160109 18.5199 0.202849 18.3512 0.249934 18.1748C0.347489 17.8093 0.495692 17.2923 0.682414 16.6739C1.05677 15.4338 1.59926 13.7419 2.23035 11.9623C2.8595 10.1882 3.5878 8.29543 4.33524 6.66741C5.03824 5.13616 5.88494 3.54608 6.82442 2.624C10.1385 -0.681454 15.5091 -0.6547 18.8586 2.61497C18.8702 2.62633 18.8817 2.63783 18.893 2.64947C22.1031 5.93974 22.1308 11.2621 18.8048 14.5158C17.8774 15.438 16.2828 16.2582 14.752 16.9369C13.122 17.6597 11.2246 18.3637 9.44207 18.9761C7.65334 19.5906 5.9491 20.1234 4.69412 20.5022C4.06585 20.6918 3.54833 20.8433 3.18682 20.9477C3.00603 21 2.86415 21.0404 2.76683 21.068L2.67383 21.0943ZM4.04342 19.4887C4.04066 19.5034 4.03986 19.5054 4.04307 19.4903C4.04318 19.4898 4.0433 19.4893 4.04342 19.4887Z" fill="white"/>
</svg>
