<svg width="69" height="68" viewBox="0 0 69 68" fill="none" xmlns="http://www.w3.org/2000/svg">
<path fill-rule="evenodd" clip-rule="evenodd" d="M25.2953 15.2697C35.563 3.25848 51.1194 -1.70395 65.7557 0.939613C66.5748 1.08757 67.2167 1.72743 67.3672 2.54612C70.0167 16.9565 64.9763 32.4023 52.7656 42.481L23.4755 66.7254C22.6842 67.3803 21.5256 67.3294 20.7948 66.6077L0.856326 46.9154C0.111973 46.1802 0.0599751 44.9956 0.73705 44.198L25.2909 15.275L25.2953 15.2697ZM28.3378 17.8665C28.3372 17.8673 28.3365 17.8681 28.3358 17.8689L4.98678 45.3728L22.3185 62.4905L50.2172 39.3979L50.2194 39.3961C60.8807 30.5963 65.5003 17.2841 63.6607 4.65127C50.7728 2.79363 37.3174 7.36378 28.3378 17.8665Z" fill="white"/>
</svg>
